<svg xmlns="http://www.w3.org/2000/svg" viewBox="0 0 222.99 104.45"><defs><style>.cls-1{fill:#010e2c;}.cls-2{fill:#1ae2bc;}.cls-3{fill:#1c2c49;}.cls-4{fill:#119383;}</style></defs><g id="Camada_2" data-name="Camada 2"><g id="Camada_1-2" data-name="Camada 1"><path class="cls-1" d="M68.17,37.83a30.32,30.32,0,0,1-17.55,27.5l14-21.53a3.4,3.4,0,0,1-1-4.71L60.7,37.22A3.41,3.41,0,1,1,55,33.52L52.1,31.65a3.4,3.4,0,0,1-4.71,1A3.3,3.3,0,0,1,46,30.88a3.2,3.2,0,0,1-.12-1.68,3.31,3.31,0,0,1,.49-1.26l-.61-.39L43.5,26.07a3.4,3.4,0,0,1-4.7,1l-20.12,31-1.35,2.08A30.33,30.33,0,1,1,68.17,37.83Z"/><path class="cls-1" d="M37.83,0A37.87,37.87,0,0,0,0,37.83c0,25.89,33.85,63.89,35.3,65.49a3.39,3.39,0,0,0,5.06,0c1.45-1.6,35.3-39.6,35.3-65.49A37.88,37.88,0,0,0,37.83,0Zm0,70.13a32.3,32.3,0,1,1,32.3-32.3A32.3,32.3,0,0,1,37.83,70.13Z"/><path class="cls-2" d="M68.17,37.83a30.32,30.32,0,0,1-17.55,27.5l14-21.53a3.4,3.4,0,0,1-1-4.71L60.7,37.22A3.41,3.41,0,1,1,55,33.52L52.1,31.65a3.4,3.4,0,0,1-4.71,1A3.3,3.3,0,0,1,46,30.88a3.2,3.2,0,0,1-.12-1.68,3.31,3.31,0,0,1,.49-1.26l-.61-.39L43.5,26.07a3.4,3.4,0,0,1-4.7,1l-20.12,31-1.35,2.08A30.33,30.33,0,1,1,68.17,37.83Z"/><path class="cls-3" d="M68.17,37.83a30.32,30.32,0,0,1-17.55,27.5l14-21.53a3.4,3.4,0,0,1-1-4.71L60.7,37.22A3.41,3.41,0,1,1,55,33.52L52.1,31.65a3.4,3.4,0,0,1-4.71,1A3.3,3.3,0,0,1,46,30.88a3.2,3.2,0,0,1-.12-1.68,3.31,3.31,0,0,1,.49-1.26l-.61-.39L43.5,26.07a3.4,3.4,0,0,1-4.7,1l-20.12,31-1.35,2.08A30.33,30.33,0,1,1,68.17,37.83Z"/><path class="cls-4" d="M45.78,27.55,43.5,26.07a3.4,3.4,0,0,1-4.7,1l-20.12,31L16.1,21.93a3.22,3.22,0,0,0,3-3.46l3.26-.23a3.24,3.24,0,1,0,6.46-.46l3.25-.23a3.24,3.24,0,0,0,6.46-.46l3.26-.24a3.22,3.22,0,0,0,3.45,3Z"/><path class="cls-4" d="M46,30.88a3.2,3.2,0,0,1-.12-1.68Z"/><path class="cls-2" d="M37.83,5.53a32.3,32.3,0,1,0,32.3,32.3A32.3,32.3,0,0,0,37.83,5.53Zm12.79,59.8,14-21.53a3.4,3.4,0,0,1-1-4.71L60.7,37.22A3.41,3.41,0,1,1,55,33.52L52.1,31.65a3.4,3.4,0,0,1-4.71,1A3.3,3.3,0,0,1,46,30.88a3.2,3.2,0,0,1-.12-1.68,3.31,3.31,0,0,1,.49-1.26l-.61-.39L43.5,26.07a3.4,3.4,0,0,1-4.7,1l-20.12,31-1.35,2.08a30.34,30.34,0,1,1,33.29,5.15Z"/><path class="cls-2" d="M86.77,45V20.48h6.08l9.44,13.29V20.48h6.55V45h-6.12l-9.4-12.89V45Z"/><path class="cls-2" d="M125.43,20a13.24,13.24,0,0,1,6.75,1.65,11.3,11.3,0,0,1,4.4,4.54,13.46,13.46,0,0,1,1.53,6.41,13.72,13.72,0,0,1-1.61,6.68A11.45,11.45,0,0,1,132,43.83a13.1,13.1,0,0,1-6.59,1.64,12.91,12.91,0,0,1-6.67-1.68,11.42,11.42,0,0,1-4.41-4.55,13.24,13.24,0,0,1-1.55-6.41,13.49,13.49,0,0,1,1.62-6.64,11.57,11.57,0,0,1,4.5-4.57A12.85,12.85,0,0,1,125.43,20Zm-5.9,12.81A8.18,8.18,0,0,0,121.1,38a5.14,5.14,0,0,0,4.3,2,5.45,5.45,0,0,0,4.3-1.92,8.12,8.12,0,0,0,1.67-5.49,7.92,7.92,0,0,0-1.6-5.13,5.48,5.48,0,0,0-7.27-1.08A6.39,6.39,0,0,0,120.34,29,8.69,8.69,0,0,0,119.53,32.79Z"/><path class="cls-2" d="M140.37,43.45l2.16-4.93a11.73,11.73,0,0,0,2.69,1.06,11.36,11.36,0,0,0,3,.49,4,4,0,0,0,2.31-.6,1.64,1.64,0,0,0,.86-1.31,1.22,1.22,0,0,0-.63-.92c-.42-.3-1.1-.73-2-1.28l-1.12-.65c-1.63-1-2.9-1.75-3.82-2.39a10.23,10.23,0,0,1-2.44-2.47A5.71,5.71,0,0,1,140.27,27a6,6,0,0,1,1.13-3.61,7.49,7.49,0,0,1,3.19-2.51,11.78,11.78,0,0,1,4.78-.9,14.46,14.46,0,0,1,3.84.54A11.53,11.53,0,0,1,156.57,22l-1.94,4.43a30.23,30.23,0,0,0-2.93-.87,11.32,11.32,0,0,0-2.25-.21,2.86,2.86,0,0,0-1.75.5,1.52,1.52,0,0,0-.67,1.23,1.19,1.19,0,0,0,.56.95,15.14,15.14,0,0,0,1.86,1.1l1.29.72a42.12,42.12,0,0,1,3.78,2.39,11.53,11.53,0,0,1,2.58,2.59,5.74,5.74,0,0,1,1.06,3.37A6.13,6.13,0,0,1,157,41.94a7.89,7.89,0,0,1-3.4,2.55,13.11,13.11,0,0,1-5.17.94,17.81,17.81,0,0,1-4.26-.58A14,14,0,0,1,140.37,43.45Z"/><path class="cls-2" d="M93.32,75.51H86.77V51h10.3a12.66,12.66,0,0,1,5.09,1,8.22,8.22,0,0,1,3.64,3,8.43,8.43,0,0,1,1.35,4.84,7.67,7.67,0,0,1-1.44,4.73,8.62,8.62,0,0,1-3.8,2.87,13.84,13.84,0,0,1-5.13.93H93.32Zm3.53-19.33H93.32v7h3.6a3.37,3.37,0,0,0,2.49-1,3.3,3.3,0,0,0,1-2.41,3.74,3.74,0,0,0-1-2.67A3.36,3.36,0,0,0,96.85,56.18Z"/><path class="cls-2" d="M110.75,51H121a11.94,11.94,0,0,1,7.24,2.09,7.28,7.28,0,0,1,2.84,6.26,7.87,7.87,0,0,1-.88,3.8,7.45,7.45,0,0,1-2.43,2.68l5.4,9.65h-7.6l-4-7.71H117.3v7.71h-6.55Zm10.08,5.15H117.3v6.48h3.6a3.47,3.47,0,0,0,2.48-.92,3.09,3.09,0,0,0,1-2.36,3,3,0,0,0-.91-2.39A3.85,3.85,0,0,0,120.83,56.18Z"/><path class="cls-2" d="M136.45,75.51V51h16.24l.61,5.15H143v4.46h7.53l.61,5.15H143v4.57h10.77l.61,5.15Z"/><path class="cls-2" d="M172.56,78.41a4.47,4.47,0,0,1,.61,2.21,3.77,3.77,0,0,1-1.51,3.15,5.67,5.67,0,0,1-3.57,1.17,6.59,6.59,0,0,1-2.16-.39,7.5,7.5,0,0,1-2-1.09l1.37-3.09a6.52,6.52,0,0,0,2,.54,1.71,1.71,0,0,0,.79-.16.52.52,0,0,0,.33-.49c0-.7-1-1.15-3.06-1.37l1.22-3.06A12.33,12.33,0,0,1,161,73.67a11,11,0,0,1-3.58-4.33,13.85,13.85,0,0,1-1.24-6,13.45,13.45,0,0,1,1.62-6.63,11.66,11.66,0,0,1,4.48-4.55,12.79,12.79,0,0,1,6.46-1.64,14.46,14.46,0,0,1,3.84.54,11.39,11.39,0,0,1,3.36,1.48L174,57a27,27,0,0,0-2.94-.87,11.15,11.15,0,0,0-2.25-.22,4.91,4.91,0,0,0-2.82.94,6.93,6.93,0,0,0-2.2,2.63,8.55,8.55,0,0,0-.84,3.85,8.13,8.13,0,0,0,.86,3.85,6.37,6.37,0,0,0,2.29,2.54,5.49,5.49,0,0,0,3,.88,8.93,8.93,0,0,0,4.64-1.33l2.48,4.9a12.89,12.89,0,0,1-5,1.62l-.43,1.11A3.13,3.13,0,0,1,172.56,78.41Z"/><path class="cls-2" d="M190.27,50.53A13.29,13.29,0,0,1,197,52.18a11.28,11.28,0,0,1,4.39,4.54,13.43,13.43,0,0,1,1.53,6.41,13.65,13.65,0,0,1-1.6,6.67,11.54,11.54,0,0,1-4.48,4.58A13.12,13.12,0,0,1,190.27,76a13,13,0,0,1-6.68-1.67,11.48,11.48,0,0,1-4.41-4.55,13.35,13.35,0,0,1-1.55-6.41,13.49,13.49,0,0,1,1.62-6.64,11.66,11.66,0,0,1,4.5-4.58A13,13,0,0,1,190.27,50.53Zm-5.9,12.81a8.26,8.26,0,0,0,1.56,5.19,5.16,5.16,0,0,0,4.3,2,5.42,5.42,0,0,0,4.3-1.92,8.12,8.12,0,0,0,1.68-5.49,8,8,0,0,0-1.6-5.13,5.48,5.48,0,0,0-7.27-1.08,6.39,6.39,0,0,0-2.16,2.59A8.66,8.66,0,0,0,184.37,63.34Z"/><path class="cls-2" d="M205.21,74l2.16-4.93a12.1,12.1,0,0,0,2.68,1.06,11.31,11.31,0,0,0,3,.48,4,4,0,0,0,2.3-.59,1.63,1.63,0,0,0,.86-1.31,1.2,1.2,0,0,0-.63-.92c-.42-.3-1.09-.73-2-1.28l-1.12-.65q-2.44-1.44-3.81-2.39A10.27,10.27,0,0,1,206.18,61a5.75,5.75,0,0,1-1.08-3.42A6.17,6.17,0,0,1,206.23,54a7.54,7.54,0,0,1,3.19-2.5,11.83,11.83,0,0,1,4.79-.9,14.38,14.38,0,0,1,3.83.54,11.45,11.45,0,0,1,3.37,1.48L219.46,57a27.6,27.6,0,0,0-2.93-.87,11.15,11.15,0,0,0-2.25-.22,2.82,2.82,0,0,0-1.75.51,1.5,1.5,0,0,0-.66,1.22,1.18,1.18,0,0,0,.56,1,17.16,17.16,0,0,0,1.85,1.1l1.3.71a44.33,44.33,0,0,1,3.78,2.4,11.28,11.28,0,0,1,2.57,2.59A5.67,5.67,0,0,1,223,68.78a6.07,6.07,0,0,1-1.19,3.71A7.83,7.83,0,0,1,218.4,75a13.06,13.06,0,0,1-5.16.94A18.34,18.34,0,0,1,209,75.4,14,14,0,0,1,205.21,74Z"/></g></g></svg>