<svg xmlns="http://www.w3.org/2000/svg" viewBox="0 0 222.99 104.45"><defs><style>.cls-1{fill:#1ae2bc;}.cls-2{fill:#119383;}</style></defs><g id="Camada_2" data-name="Camada 2"><g id="Camada_1-2" data-name="Camada 1"><path class="cls-1" d="M37.83,0A37.87,37.87,0,0,0,0,37.83c0,25.89,33.85,63.89,35.3,65.49a3.39,3.39,0,0,0,5.06,0c1.45-1.6,35.3-39.6,35.3-65.49A37.88,37.88,0,0,0,37.83,0Zm0,70.13a32.3,32.3,0,1,1,32.3-32.3A32.3,32.3,0,0,1,37.83,70.13Z"/><path class="cls-2" d="M45.78,27.55,43.5,26.07a3.4,3.4,0,0,1-4.7,1l-20.12,31L16.1,21.93a3.22,3.22,0,0,0,3-3.46l3.26-.23a3.24,3.24,0,1,0,6.46-.46l3.25-.23a3.24,3.24,0,0,0,6.46-.46l3.26-.24a3.22,3.22,0,0,0,3.45,3Z"/><path class="cls-2" d="M46,30.88a3.2,3.2,0,0,1-.12-1.68Z"/><path class="cls-1" d="M37.83,5.53a32.3,32.3,0,1,0,32.3,32.3A32.3,32.3,0,0,0,37.83,5.53Zm12.79,59.8,14-21.53a3.4,3.4,0,0,1-1-4.71L60.7,37.22A3.41,3.41,0,1,1,55,33.52L52.1,31.65a3.4,3.4,0,0,1-4.71,1A3.3,3.3,0,0,1,46,30.88a3.2,3.2,0,0,1-.12-1.68,3.31,3.31,0,0,1,.49-1.26l-.61-.39L43.5,26.07a3.4,3.4,0,0,1-4.7,1l-20.12,31-1.35,2.08a30.34,30.34,0,1,1,33.29,5.15Z"/><path class="cls-1" d="M86.77,45V20.48h6.08l9.43,13.29V20.48h6.56V45h-6.12l-9.4-12.89V45Z"/><path class="cls-1" d="M125.43,20a13.29,13.29,0,0,1,6.75,1.65,11.28,11.28,0,0,1,4.39,4.54,13.46,13.46,0,0,1,1.53,6.41,13.72,13.72,0,0,1-1.6,6.68A11.52,11.52,0,0,1,132,43.83a13.12,13.12,0,0,1-6.59,1.64,13,13,0,0,1-6.68-1.68,11.55,11.55,0,0,1-4.41-4.55,13.35,13.35,0,0,1-1.54-6.41,13.49,13.49,0,0,1,1.62-6.64,11.57,11.57,0,0,1,4.5-4.57A12.85,12.85,0,0,1,125.43,20Zm-5.9,12.81A8.24,8.24,0,0,0,121.09,38a5.17,5.17,0,0,0,4.31,2,5.45,5.45,0,0,0,4.3-1.92,8.17,8.17,0,0,0,1.67-5.49,7.92,7.92,0,0,0-1.6-5.13,5.48,5.48,0,0,0-7.27-1.08A6.39,6.39,0,0,0,120.34,29,8.69,8.69,0,0,0,119.53,32.79Z"/><path class="cls-1" d="M140.37,43.45l2.16-4.93a11.63,11.63,0,0,0,2.68,1.06,11.42,11.42,0,0,0,3,.49,3.94,3.94,0,0,0,2.3-.6,1.63,1.63,0,0,0,.87-1.31,1.22,1.22,0,0,0-.63-.92c-.42-.3-1.1-.73-2-1.28l-1.11-.65c-1.63-1-2.91-1.75-3.82-2.39a10.27,10.27,0,0,1-2.45-2.47A5.71,5.71,0,0,1,140.26,27a6.06,6.06,0,0,1,1.14-3.61,7.46,7.46,0,0,1,3.18-2.51,11.87,11.87,0,0,1,4.79-.9,14.46,14.46,0,0,1,3.84.54A11.65,11.65,0,0,1,156.57,22l-1.94,4.43a29.45,29.45,0,0,0-2.94-.87,11.18,11.18,0,0,0-2.25-.21,2.83,2.83,0,0,0-1.74.5,1.5,1.5,0,0,0-.67,1.23,1.19,1.19,0,0,0,.56.95,15.64,15.64,0,0,0,1.85,1.1l1.3.72a42.12,42.12,0,0,1,3.78,2.39,11.28,11.28,0,0,1,2.57,2.59,5.68,5.68,0,0,1,1.07,3.37A6.13,6.13,0,0,1,157,41.94a7.89,7.89,0,0,1-3.4,2.55,13.11,13.11,0,0,1-5.17.94,18,18,0,0,1-4.27-.58A14.09,14.09,0,0,1,140.37,43.45Z"/><path class="cls-1" d="M93.32,75.51H86.77V51H97.06a12.71,12.71,0,0,1,5.1,1,8.19,8.19,0,0,1,3.63,3,8.43,8.43,0,0,1,1.35,4.84,7.67,7.67,0,0,1-1.44,4.73,8.59,8.59,0,0,1-3.79,2.87,13.92,13.92,0,0,1-5.13.93H93.32Zm3.53-19.33H93.32v7h3.6a3.33,3.33,0,0,0,2.48-1,3.27,3.27,0,0,0,1-2.41,3.74,3.74,0,0,0-1-2.67A3.36,3.36,0,0,0,96.85,56.18Z"/><path class="cls-1" d="M110.74,51H121a11.94,11.94,0,0,1,7.24,2.09,7.28,7.28,0,0,1,2.84,6.26,7.87,7.87,0,0,1-.88,3.8,7.45,7.45,0,0,1-2.43,2.68l5.4,9.65h-7.6l-4-7.71H117.3v7.71h-6.56Zm10.08,5.15H117.3v6.48h3.6a3.49,3.49,0,0,0,2.48-.92,3.09,3.09,0,0,0,1-2.36,3,3,0,0,0-.92-2.39A3.81,3.81,0,0,0,120.82,56.18Z"/><path class="cls-1" d="M136.45,75.51V51h16.23l.62,5.15H143v4.46h7.52l.62,5.15H143v4.57h10.76l.62,5.15Z"/><path class="cls-1" d="M172.56,78.41a4.58,4.58,0,0,1,.61,2.21,3.8,3.8,0,0,1-1.51,3.15,5.67,5.67,0,0,1-3.57,1.17,6.59,6.59,0,0,1-2.16-.39,7.5,7.5,0,0,1-2-1.09l1.36-3.09a6.63,6.63,0,0,0,2,.54,1.71,1.71,0,0,0,.79-.16.52.52,0,0,0,.33-.49c0-.7-1-1.15-3.06-1.37l1.22-3.06A12.33,12.33,0,0,1,161,73.67a11,11,0,0,1-3.58-4.33,13.85,13.85,0,0,1-1.24-6,13.45,13.45,0,0,1,1.62-6.63,11.66,11.66,0,0,1,4.48-4.55,12.79,12.79,0,0,1,6.46-1.64,14.33,14.33,0,0,1,3.83.54,11.45,11.45,0,0,1,3.37,1.48L174,57a27.63,27.63,0,0,0-2.94-.87,11.15,11.15,0,0,0-2.25-.22,4.91,4.91,0,0,0-2.82.94,6.84,6.84,0,0,0-2.2,2.63,8.55,8.55,0,0,0-.85,3.85,8.13,8.13,0,0,0,.87,3.85,6.35,6.35,0,0,0,2.28,2.54,5.54,5.54,0,0,0,3,.88,8.94,8.94,0,0,0,4.65-1.33l2.48,4.9a12.89,12.89,0,0,1-5,1.62l-.43,1.11A3.16,3.16,0,0,1,172.56,78.41Z"/><path class="cls-1" d="M190.27,50.53A13.29,13.29,0,0,1,197,52.18a11.28,11.28,0,0,1,4.39,4.54,13.43,13.43,0,0,1,1.53,6.41,13.76,13.76,0,0,1-1.6,6.67,11.61,11.61,0,0,1-4.48,4.58A13.12,13.12,0,0,1,190.27,76a12.94,12.94,0,0,1-6.68-1.67,11.48,11.48,0,0,1-4.41-4.55,13.35,13.35,0,0,1-1.55-6.41,13.49,13.49,0,0,1,1.62-6.64,11.66,11.66,0,0,1,4.5-4.58A13,13,0,0,1,190.27,50.53Zm-5.91,12.81a8.26,8.26,0,0,0,1.57,5.19,5.15,5.15,0,0,0,4.3,2,5.44,5.44,0,0,0,4.3-1.92,8.12,8.12,0,0,0,1.68-5.49,8,8,0,0,0-1.6-5.13,5.49,5.49,0,0,0-7.28-1.08,6.39,6.39,0,0,0-2.16,2.59A8.66,8.66,0,0,0,184.36,63.34Z"/><path class="cls-1" d="M205.21,74l2.16-4.93a11.9,11.9,0,0,0,2.68,1.06,11.3,11.3,0,0,0,3,.48,4,4,0,0,0,2.31-.59,1.65,1.65,0,0,0,.86-1.31,1.2,1.2,0,0,0-.63-.92c-.42-.3-1.1-.73-2-1.28l-1.12-.65q-2.44-1.44-3.81-2.39A10.09,10.09,0,0,1,206.18,61a5.75,5.75,0,0,1-1.08-3.42A6.17,6.17,0,0,1,206.23,54a7.54,7.54,0,0,1,3.19-2.5,11.83,11.83,0,0,1,4.79-.9,14.44,14.44,0,0,1,3.83.54,11.45,11.45,0,0,1,3.37,1.48L219.46,57a27.6,27.6,0,0,0-2.93-.87,11.3,11.3,0,0,0-2.25-.22,2.82,2.82,0,0,0-1.75.51,1.5,1.5,0,0,0-.66,1.22,1.19,1.19,0,0,0,.55,1,17.55,17.55,0,0,0,1.86,1.1l1.29.71a41.35,41.35,0,0,1,3.78,2.4,11.32,11.32,0,0,1,2.58,2.59A5.67,5.67,0,0,1,223,68.78a6.13,6.13,0,0,1-1.19,3.71A7.83,7.83,0,0,1,218.4,75a13.11,13.11,0,0,1-5.17.94A18.33,18.33,0,0,1,209,75.4,14,14,0,0,1,205.21,74Z"/></g></g></svg>