<svg xmlns="http://www.w3.org/2000/svg" viewBox="0 0 230.56 244.02"><defs><style>.cls-1{fill:#119383;}.cls-2{fill:#1ae2bc;}</style></defs><g id="Camada_2" data-name="Camada 2"><g id="Camada_1-2" data-name="Camada 1"><path class="cls-1" d="M151.9,201.36a21.85,21.85,0,0,1-20.17,23.3l-88.41,6.28a140.54,140.54,0,0,1-29.81-18.36l-.15-1.28-1.09-15.13L0,24.16A15.32,15.32,0,0,0,14.22,7.7l15.5-1.09A15.4,15.4,0,1,0,60.45,4.42L75.9,3.33a15.4,15.4,0,1,0,30.72-2.19L122.13,0a15.32,15.32,0,0,0,16.4,14.27l2.62,36.62.57,7.84.57,8Z"/><path class="cls-2" d="M230.56,128.17,164.17,230.56a144.22,144.22,0,0,1-120.85.38,140.54,140.54,0,0,1-29.81-18.36c-2.62-2-5.19-4.23-7.66-6.51l6.42-9.9L108,48.65a16.17,16.17,0,0,0,22.36-4.8l10.84,7,2.9,1.85a15.73,15.73,0,0,0-2.33,6,15.28,15.28,0,0,0,.57,8,15.69,15.69,0,0,0,6.52,8.42,16.15,16.15,0,0,0,22.4-4.75l13.69,8.89a16.2,16.2,0,0,0,27.21,17.59l13.74,8.9A16.18,16.18,0,0,0,230.56,128.17Z"/></g></g></svg>